<?xml version="1.0" encoding="UTF-8" standalone="no"?>
<!DOCTYPE svg PUBLIC "-//W3C//DTD SVG 1.1//EN" "http://www.w3.org/Graphics/SVG/1.1/DTD/svg11.dtd">
<svg width="100%" height="100%" viewBox="0 0 1024 1024" version="1.1" xmlns="http://www.w3.org/2000/svg" xmlns:xlink="http://www.w3.org/1999/xlink" xml:space="preserve" xmlns:serif="http://www.serif.com/" style="fill-rule:evenodd;clip-rule:evenodd;stroke-linejoin:round;stroke-miterlimit:2;">
    <g transform="matrix(1,0,0,1,-1124,0)">
        <g id="Baked" transform="matrix(1,0,0,1,1124,0)">
            <rect x="0" y="0" width="1024" height="1024" style="fill:none;"/>
            <g transform="matrix(1,0,0,1,-1124,0)">
                <path d="M2132.2,487.908C2132.58,495.896 2132.77,503.926 2132.77,512C2132.77,707.603 2020.51,877.086 1857.24,958.965L1665.12,954.997L2132.2,487.908Z" style="fill:rgb(198,160,246);"/>
            </g>
            <g transform="matrix(1,0,0,1,-1124,0)">
                <path d="M2085.3,298.968C2112.51,356.723 2129.01,420.576 2132.2,487.908L1665.12,954.997L1434.04,950.225L2085.3,298.968Z" style="fill:rgb(125,196,228);"/>
            </g>
            <g transform="matrix(1,0,0,1,-1124,0)">
                <path d="M1988.23,160.193C2027.96,200.346 2060.93,247.231 2085.3,298.968L1434.04,950.225L1395.95,949.438L1395.95,949.583C1354.6,926.694 1316.82,898.062 1283.68,864.744L1988.23,160.193Z" style="fill:rgb(166,218,149);"/>
            </g>
            <g transform="matrix(1,0,0,1,-1124,0)">
                <path d="M1850.75,61.837C1902.07,86.65 1948.51,120.052 1988.23,160.193L1283.68,864.744C1243.88,824.724 1210.79,777.953 1186.28,726.299L1850.75,61.837Z" style="fill:rgb(238,212,159);"/>
            </g>
            <g transform="matrix(1,0,0,1,-1124,0)">
                <path d="M1663.28,13.462C1730.13,17.17 1793.49,34.161 1850.75,61.837L1186.28,726.299C1158.95,668.697 1142.29,605.022 1138.87,537.868L1663.28,13.462Z" style="fill:rgb(245,169,127);"/>
            </g>
            <g transform="matrix(1,0,0,1,-1124,0)">
                <path d="M1138.87,537.868C1138.43,529.282 1138.21,520.667 1138.21,512C1138.21,236.425 1361.04,12.694 1635.49,12.694C1644.83,12.694 1654.1,12.953 1663.28,13.462L1138.87,537.868Z" style="fill:rgb(237,135,150);"/>
            </g>
            <path d="M271.955,949.438C279.395,892.409 290.398,842.511 305.004,799.704C234.699,763.542 182.723,702.731 170.611,614.916C160.049,538.379 177.516,449.159 223.01,385.92C211.834,343.483 196.591,261.782 207.694,215.395C210.62,203.165 221.694,194.973 234.245,195.749C293.52,199.435 341.59,222.738 380.37,267.882C453.337,240.658 545.907,241.097 606.147,258.739C637.672,214.81 675.062,191.097 724.668,178.94C736.327,176.073 748.059,181.413 753.574,192.077C775.809,235.114 778.165,295.574 766.828,345.808C909.997,484.4 873.397,686.215 714.545,782.15C726.196,839.096 732.671,898.028 733.939,958.979C667.104,992.464 591.728,1011.31 512,1011.31C424.991,1011.31 343.166,988.866 271.955,949.438Z" style="fill:rgb(23,22,34);"/>
            <path d="M677.608,391.128C711.297,389.094 740.321,411.579 749.259,442.46C750.151,445.561 748.908,448.706 746.128,450.315C743.334,451.924 739.911,451.471 737.614,449.174C722.635,434.224 701.862,425.49 679.671,426.631C657.669,427.758 638.652,438.334 626.115,454.221C624.243,456.605 621.083,457.351 618.304,456.049C615.524,454.748 614.018,451.822 614.515,448.72C619.386,418.132 644.445,393.132 677.608,391.128Z" style="fill:rgb(194,203,241);"/>
            <path d="M458.735,396.423C477.869,395.238 495.789,401.426 510.199,412.617C524.739,423.91 535.74,440.251 540.86,459.092C541.884,462.896 540.421,466.758 537.218,468.703C534.014,470.634 530.093,470.034 527.475,467.24C510.316,448.969 486.515,438.246 461.09,439.548C436.032,440.836 414.381,453.606 400.192,472.77C398.027,475.725 394.472,476.588 391.327,474.979C388.182,473.37 386.412,469.786 386.953,466.099C389.659,447.579 398.158,430.801 410.563,418.366C423.071,405.83 439.747,397.608 458.735,396.423Z" style="fill:rgb(194,203,241);"/>
            <path d="M603.266,511.771C613.549,511.112 623.526,510.469 633.166,509.868C636.355,509.678 639.457,512.311 641.051,516.524C642.646,520.737 642.324,525.33 640.276,528.446C627.447,547.961 619.254,557.645 609.761,558.83C599.974,560.044 588.447,552.144 567.645,535.673C563.9,532.732 561.808,527.612 562.276,522.595C562.715,517.563 565.685,514.169 569.766,513.905C581.323,513.159 592.499,512.457 603.266,511.771Z" style="fill:rgb(194,203,241);"/>
            <path d="M609.936,582.44C612.364,579.163 616.153,578.476 619.386,580.685C629.641,587.794 638.52,590.31 646.113,588.599C653.544,586.902 661.502,585.264 667.763,575.448C677.52,560.176 680.226,569.83 675.297,582.104C672.254,589.638 666.49,598.459 658.444,604.31C650.194,610.293 639.237,613.38 625.75,608.655C621.054,607.016 616.329,608.099 612.291,611.756C602.9,620.255 591.519,625.009 579.699,625.2C567.338,625.404 554.172,620.679 542.206,609.825C528.938,597.786 529.011,584.561 550.573,597.932C563.198,605.802 574.184,603.505 583.78,601.648C593.128,599.804 601.817,593.397 609.936,582.44Z" style="fill:rgb(194,203,241);"/>
            <path d="M603.587,851.591C593.625,872.232 569.4,888.909 548.452,890.62C546.17,890.796 544.122,889.728 542.981,887.739C526.305,858.686 524.491,826.708 530.035,799.821C530.371,798.197 531.264,796.924 532.683,796.061C534.116,795.198 535.652,794.979 537.247,795.432C565.524,803.376 586.925,813.542 601.452,825.933C611.516,812.679 625.399,803.507 643.114,798.446C646.142,797.583 649.302,799.309 650.223,802.308C656.704,823.578 658.459,846.413 652.915,866.995C652.11,869.979 648.204,872.379 644.43,871.384C629.743,867.537 614.544,860.164 603.587,851.591Z" style="fill:rgb(228,140,156);"/>
        </g>
    </g>
</svg>
